<svg width="384" height="128" version="1.1" viewBox="0 0 101.6 33.867" xmlns="http://www.w3.org/2000/svg"><path d="m13.519 31.575c-2.7008 0-5.0787-0.52842-7.1337-1.5853-2.0256-1.0568-3.5962-2.4954-4.7118-4.3155-1.1156-1.8495-1.6733-3.9486-1.6733-6.2971 0-2.3779 0.54311-4.477 1.6293-6.2971 1.1156-1.8495 2.6274-3.288 4.5356-4.3155 1.9082-1.0568 4.0659-1.5853 6.4732-1.5853 2.3192 0 4.4035 0.499 6.253 1.4972 1.8789 0.96878 3.3613 2.3779 4.4476 4.2274 1.0863 1.8201 1.6293 4.0072 1.6293 6.5613 0 0.26421-0.01485 0.57247-0.04398 0.92474-0.02913 0.32288-0.05885 0.63112-0.08809 0.92474h-19.243v-4.0072h15.633l-2.6421 1.189c0-1.233-0.24959-2.3045-0.7486-3.2146-0.499-0.91012-1.189-1.6147-2.0697-2.1137-0.88071-0.52842-1.9082-0.79264-3.0825-0.79264-1.1743 0-2.2164 0.26421-3.1265 0.79264-0.88071 0.499-1.5706 1.2184-2.0697 2.1577-0.49906 0.91011-0.7486 1.9962-0.7486 3.2586v1.0568c0 1.2917 0.27889 2.4366 0.83667 3.4348 0.58715 0.96878 1.3945 1.7174 2.4219 2.2458 1.0568 0.499 2.2898 0.7486 3.699 0.7486 1.2624 0 2.3633-0.19074 3.3027-0.57247 0.96878-0.38167 1.8495-0.95415 2.6421-1.7174l3.6549 3.9632c-1.0863 1.233-2.4514 2.1871-4.0953 2.8623-1.6439 0.64591-3.5375 0.96878-5.6806 0.96878zm30.422-24.396c1.8787 0 3.5521 0.38167 5.02 1.1449 1.4972 0.73398 2.6714 1.8789 3.5228 3.4348 0.8513 1.5266 1.277 3.4934 1.277 5.9007v13.563h-6.8695v-12.506c0-1.9081-0.42571-3.3173-1.277-4.2274-0.82205-0.91012-1.9964-1.3651-3.5228-1.3651-1.0863 0-2.0697 0.23479-2.9504 0.70456-0.85145 0.44034-1.5266 1.1303-2.0256 2.0697-0.46976 0.93937-0.70457 2.1431-0.70457 3.6109v11.713h-6.8695v-23.691h6.5613v6.5613l-1.233-1.9816c0.8513-1.5853 2.0697-2.8036 3.6549-3.6549 1.5853-0.8513 3.3907-1.277 5.4164-1.277zm25.734 24.396c-2.7889 0-4.9612-0.70457-6.5172-2.1137-1.5559-1.4385-2.3339-3.5669-2.3339-6.3851v-20.785h6.8695v20.697c0 0.99819 0.26421 1.776 0.79264 2.3339 0.52842 0.52842 1.2478 0.79264 2.1577 0.79264 1.0863 0 2.011-0.29363 2.7742-0.8807l1.8495 4.8439c-0.70456 0.499-1.5559 0.88071-2.5541 1.1449-0.96878 0.23479-1.9816 0.3523-3.0384 0.3523zm-12.506-18.231v-5.2842h16.425v5.2842zm32.981 18.231c-2.7009 0-5.0788-0.52842-7.1337-1.5853-2.0256-1.0568-3.5963-2.4954-4.7118-4.3155-1.1157-1.8495-1.6733-3.9486-1.6733-6.2971 0-2.3779 0.54305-4.477 1.6293-6.2971 1.1155-1.8495 2.6273-3.288 4.5356-4.3155 1.9081-1.0568 4.0659-1.5853 6.4732-1.5853 2.3191 0 4.4035 0.499 6.253 1.4972 1.8787 0.96878 3.3613 2.3779 4.4476 4.2274 1.0861 1.8201 1.6293 4.0072 1.6293 6.5613 0 0.26421-0.0148 0.57247-0.044 0.92474-0.0291 0.32288-0.0588 0.63112-0.0881 0.92474h-19.243v-4.0072h15.633l-2.6421 1.189c0-1.233-0.24959-2.3045-0.7486-3.2146-0.49918-0.91012-1.189-1.6147-2.0697-2.1137-0.88071-0.52842-1.9083-0.79264-3.0825-0.79264-1.1743 0-2.2166 0.26421-3.1265 0.79264-0.88071 0.499-1.5706 1.2184-2.0697 2.1577-0.49918 0.91011-0.7486 1.9962-0.7486 3.2586v1.0568c0 1.2917 0.27883 2.4366 0.83667 3.4348 0.58709 0.96878 1.3944 1.7174 2.4219 2.2458 1.0568 0.499 2.2898 0.7486 3.699 0.7486 1.2622 0 2.3631-0.19074 3.3027-0.57247 0.96878-0.38167 1.8495-0.95415 2.6421-1.7174l3.6549 3.9632c-1.0863 1.233-2.4514 2.1871-4.0953 2.8623-1.6441 0.64591-3.5376 0.96878-5.6806 0.96878z" fill="currentColor" stroke-width="1.5727"/></svg>
